<?xml version="1.0" encoding="UTF-8"?>
<svg width="180px" height="24px" viewBox="0 0 180 24" version="1.1" xmlns="http://www.w3.org/2000/svg" xmlns:xlink="http://www.w3.org/1999/xlink">
    <title>logo_white</title>
    <g id="Symbols" stroke="none" stroke-width="1" fill="none" fill-rule="evenodd">
        <g id="Main-Nav:-Large" transform="translate(-422.000000, -27.000000)" fill="#FFFFFF">
            <g id="Logo" transform="translate(422.000000, 27.000000)">
                <polyline id="Fill-1" points="0.0364122137 9.58244275 6.69755725 9.58244275 6.69755725 10.0015267 0.495801527 10.0015267 0.495801527 14.0682443 6.10305344 14.0682443 6.10305344 14.4870992 0.495801527 14.4870992 0.495801527 18.6216031 6.7651145 18.6216031 6.7651145 19.040458 0.0364122137 19.040458 0.0364122137 9.58244275"></polyline>
                <polyline id="Fill-2" points="10.4267176 9.58244275 10.8861069 9.58244275 10.8861069 18.6216031 16.5879389 18.6216031 16.5879389 19.040458 10.4267176 19.040458 10.4267176 9.58244275"></polyline>
                <polygon id="Fill-3" points="20.0061069 9.58244275 20.4654962 9.58244275 20.4654962 19.040229 20.0061069 19.040229"></polygon>
                <polyline id="Fill-4" points="24.2757252 18.7837405 30.9774046 10.0015267 24.5054198 10.0015267 24.5054198 9.58244275 31.6259542 9.58244275 31.6259542 9.83938931 24.9242748 18.6216031 31.5989313 18.6216031 31.5989313 19.040458 24.2757252 19.040458 24.2757252 18.7837405"></polyline>
                <path d="M39.0167176,9.5151145 L39.448855,9.5151145 L43.9346565,19.040458 L43.4349618,19.040458 L42.151374,16.2841221 L36.300687,16.2841221 L35.0035878,19.040458 L34.530687,19.040458 L39.0167176,9.5151145 L39.0167176,9.5151145 Z M41.9484733,15.8652672 L39.2191603,10.0555725 L36.5033588,15.8652672 L41.9484733,15.8652672 L41.9484733,15.8652672 Z" id="Fill-5"></path>
                <path d="M47.2854962,9.58244275 L51.1767939,9.58244275 C51.7174809,9.58244275 52.199313,9.65480916 52.6227481,9.79885496 C53.0459542,9.94290076 53.3880916,10.1455725 53.6493893,10.4066412 C54.0549618,10.8122137 54.2576336,11.3210687 54.2576336,11.9334351 L54.2576336,11.960458 C54.2576336,12.2668702 54.2125191,12.5414504 54.1225191,12.7846565 C54.0320611,13.0278626 53.9081679,13.2440458 53.7508397,13.4332061 C53.5930534,13.6223664 53.4082443,13.7826718 53.1966412,13.9127481 C52.9850382,14.0432824 52.7578626,14.1403817 52.5146565,14.2035878 C52.8203817,14.2574046 53.1112214,14.3496947 53.3858015,14.480458 C53.6603817,14.6109924 53.9015267,14.7731298 54.1085496,14.9668702 C54.3158015,15.1603817 54.4781679,15.3857252 54.5951908,15.6424427 C54.7119847,15.8991603 54.7710687,16.189542 54.7710687,16.5138168 L54.7710687,16.5408397 C54.7710687,17.3336641 54.4712977,17.9485496 53.8724427,18.3850382 C53.2731298,18.8222137 52.4420611,19.040458 51.3792366,19.040458 L47.2854962,19.040458 L47.2854962,9.58244275 L47.2854962,9.58244275 Z M51.2716031,14.0545038 C51.6226718,14.0545038 51.9515267,14.0121374 52.2577099,13.9267176 C52.5636641,13.8410687 52.8320611,13.7123664 53.0615267,13.5412977 C53.2914504,13.370458 53.4712214,13.1561069 53.6024427,12.8993893 C53.7325191,12.6426718 53.7982443,12.3438168 53.7982443,12.0009924 L53.7982443,11.9739695 C53.7982443,11.3794656 53.5683206,10.9022137 53.1089313,10.5419847 C52.649542,10.1817557 52.0009924,10.0015267 51.1632824,10.0015267 L47.7446565,10.0015267 L47.7446565,14.0545038 L51.2716031,14.0545038 L51.2716031,14.0545038 Z M51.3932061,18.6216031 C52.3119847,18.6216031 53.0258015,18.439313 53.5348855,18.0742748 C54.0432824,17.7094656 54.2979389,17.2026718 54.2979389,16.5541221 L54.2979389,16.5273282 C54.2979389,16.1941221 54.2280916,15.9014504 54.088626,15.649084 C53.9489313,15.3971756 53.7531298,15.1828244 53.5007634,15.0071756 C53.248626,14.8315267 52.9470229,14.6989313 52.5954962,14.6089313 C52.2444275,14.5187023 51.8615267,14.4733588 51.4467939,14.4733588 L47.7446565,14.4733588 L47.7446565,18.6216031 L51.3932061,18.6216031 L51.3932061,18.6216031 Z" id="Fill-6"></path>
                <polyline id="Fill-7" points="58.4729771 9.58244275 65.1341221 9.58244275 65.1341221 10.0015267 58.9323664 10.0015267 58.9323664 14.0682443 64.5396183 14.0682443 64.5396183 14.4870992 58.9323664 14.4870992 58.9323664 18.6216031 65.2016794 18.6216031 65.2016794 19.040458 58.4729771 19.040458 58.4729771 9.58244275"></polyline>
                <polyline id="Fill-8" points="71.3356489 10.0015267 67.9715267 10.0015267 67.9715267 9.58244275 75.1731298 9.58244275 75.1731298 10.0015267 71.7952672 10.0015267 71.7952672 19.040458 71.3356489 19.040458 71.3356489 10.0015267"></polyline>
                <polyline id="Fill-9" points="78.4829771 9.58244275 78.9423664 9.58244275 78.9423664 14.0682443 85.4145802 14.0682443 85.4145802 9.58244275 85.8737405 9.58244275 85.8737405 19.040458 85.4145802 19.040458 85.4145802 14.4870992 78.9423664 14.4870992 78.9423664 19.040458 78.4829771 19.040458 78.4829771 9.58244275"></polyline>
                <path d="M122.573588,19.2025954 C121.906947,19.2025954 121.290229,19.0741221 120.722519,18.8174046 C120.155267,18.560687 119.664046,18.2139695 119.25,17.7770229 C118.835496,17.3403053 118.513511,16.8268702 118.283817,16.2369466 C118.054122,15.6470229 117.93916,15.0140458 117.93916,14.3384733 L117.93916,14.3112214 C117.93916,13.6448092 118.054122,13.0166412 118.283817,12.4267176 C118.513511,11.8370229 118.835496,11.3187786 119.25,10.8729008 C119.664046,10.4270229 120.157328,10.0736641 120.729389,9.8121374 C121.30145,9.5510687 121.925038,9.42030534 122.600611,9.42030534 C123.041908,9.42030534 123.436031,9.45877863 123.782977,9.53526718 C124.129466,9.61175573 124.447099,9.71755725 124.735649,9.85267176 C125.02374,9.98801527 125.287099,10.1455725 125.525954,10.3258015 C125.76458,10.5060305 126.000916,10.7041221 126.23542,10.9200763 L125.911145,11.2580916 C125.712595,11.0689313 125.503282,10.8889313 125.282519,10.7176336 C125.061985,10.5463359 124.816489,10.3954198 124.546489,10.2648855 C124.276031,10.1345802 123.981069,10.0306107 123.661374,9.95412214 C123.34145,9.8778626 122.983282,9.83938931 122.587099,9.83938931 C121.983664,9.83938931 121.427176,9.95641221 120.91855,10.190687 C120.409466,10.4249618 119.967939,10.7446565 119.594427,11.149771 C119.220687,11.5553435 118.927557,12.0280153 118.716183,12.5684733 C118.504351,13.1089313 118.398779,13.6853435 118.398779,14.2979389 L118.398779,14.3249618 C118.398779,14.9375573 118.504351,15.5137405 118.716183,16.0546565 C118.927557,16.5948855 119.222748,17.0680153 119.601298,17.4731298 C119.979389,17.8782443 120.425267,18.1981679 120.938931,18.4326718 C121.452366,18.6667176 122.006336,18.7837405 122.600611,18.7837405 C123.33916,18.7837405 123.978779,18.6396947 124.519237,18.351374 C125.059924,18.0632824 125.541527,17.7028244 125.964962,17.270458 L126.289237,17.5814504 C126.063893,17.8065649 125.823206,18.0183969 125.566489,18.2162595 C125.309771,18.4143511 125.028092,18.5856489 124.721908,18.7294656 C124.415496,18.8737405 124.08458,18.9887023 123.728931,19.0741221 C123.373053,19.159542 122.987863,19.2025954 122.573588,19.2025954" id="Fill-10"></path>
                <polyline id="Fill-11" points="129.639847 9.58244275 130.099237 9.58244275 130.099237 18.6216031 135.801069 18.6216031 135.801069 19.040458 129.639847 19.040458 129.639847 9.58244275"></polyline>
                <path d="M142.745954,9.5151145 L143.178321,9.5151145 L147.664122,19.040458 L147.164198,19.040458 L145.880611,16.2841221 L140.030153,16.2841221 L138.733053,19.040458 L138.260153,19.040458 L142.745954,9.5151145 L142.745954,9.5151145 Z M145.677939,15.8652672 L142.948626,10.0555725 L140.232824,15.8652672 L145.677939,15.8652672 L145.677939,15.8652672 Z" id="Fill-12"></path>
                <path d="M151.014733,9.58244275 L154.919542,9.58244275 C155.522748,9.58244275 156.052214,9.66145038 156.507023,9.81900763 C156.961832,9.97656489 157.333511,10.1996183 157.621832,10.4879389 C157.838015,10.7130534 158.007023,10.9743511 158.128397,11.271374 C158.25,11.568626 158.310916,11.8929008 158.310916,12.2444275 L158.310916,12.2712214 C158.310916,12.6678626 158.238779,13.0232824 158.094733,13.3383969 C157.950458,13.6539695 157.745496,13.9241985 157.479847,14.149084 C157.214198,14.3746565 156.898855,14.5546565 156.534046,14.689771 C156.169466,14.8248855 155.770763,14.9105344 155.338397,14.9464885 L158.486565,19.040458 L157.905573,19.040458 L154.824962,15.0005344 L151.474122,15.0005344 L151.474122,19.040458 L151.014733,19.040458 L151.014733,9.58244275 L151.014733,9.58244275 Z M154.797939,14.5816794 C155.284351,14.5816794 155.716718,14.5255725 156.095038,14.4129008 C156.473359,14.300229 156.793053,14.1424427 157.054351,13.94 C157.31542,13.7373282 157.51374,13.4964122 157.648855,13.2170229 C157.783969,12.9376336 157.851527,12.6316794 157.851527,12.2982443 L157.851527,12.2712214 C157.851527,11.5599237 157.59229,11.0036641 157.074733,10.6026718 C156.556489,10.2021374 155.82916,10.0015267 154.892519,10.0015267 L151.474122,10.0015267 L151.474122,14.5816794 L154.797939,14.5816794 L154.797939,14.5816794 Z" id="Fill-13"></path>
                <polyline id="Fill-14" points="162.201985 9.58244275 162.661374 9.58244275 162.661374 15.9058015 168.998473 9.58244275 169.633511 9.58244275 165.51229 13.6493893 169.79542 19.040458 169.201145 19.040458 165.188015 13.9601527 162.661374 16.46 162.661374 19.040458 162.201985 19.040458 162.201985 9.58244275"></polyline>
                <polyline id="Fill-15" points="173.186794 9.58244275 179.847939 9.58244275 179.847939 10.0015267 173.646183 10.0015267 173.646183 14.0682443 179.253435 14.0682443 179.253435 14.4870992 173.646183 14.4870992 173.646183 18.6216031 179.915496 18.6216031 179.915496 19.040458 173.186794 19.040458 173.186794 9.58244275"></polyline>
                <path d="M98.1783289,0.132186996 C98.1783289,0.132186996 97.0117624,0.610412351 96.7005293,2.84153587 C96.4620115,5.02894103 99.4599907,8.96969045 102.933221,13.3913419 C103.354174,13.9272383 103.778581,14.4754939 104.203934,15.0242198 L104.842361,15.8461753 C107.538297,19.3055933 110.22196,22.5454317 112.256683,22.5454317 C112.907997,22.5454317 113.10473,22.4875866 113.10473,22.4875866 C113.10473,22.4875866 112.077051,24.0107404 110.2385,23.9999429 C109.606666,23.9999429 108.926652,23.8645664 108.305822,23.4925142 C106.481546,22.399109 104.030344,19.115622 100.768121,14.8468362 C97.8431548,11.0195463 94.8438372,7.30274199 94.8438372,4.60558668 C94.8438372,1.21756227 98.1783289,0.132186996 98.1783289,0.132186996 Z M95.087976,13.0656252 C95.087976,13.0656252 94.2576245,14.4955428 94.2576245,17.0610969 C94.293313,19.9970675 96.5131352,22.0570351 98.0303408,22.5603911 C98.3209043,22.6567499 98.5912444,22.745525 98.8606923,22.7837414 C100.03633,22.9505849 100.776122,22.8512521 100.776122,22.8512521 C100.776122,22.8512521 100.364366,23.3941627 99.494906,23.7291882 C98.9729622,23.9302331 98.1493023,23.9946211 97.5344199,23.9946211 C95.1236645,23.9946211 92.25,21.9629068 92.25,18.6232105 C92.25,14.5750983 95.087976,13.0656252 95.087976,13.0656252 Z M111.724419,9.57229009 C111.724419,9.57229009 111.433558,10.522644 110.657334,12.2052062 C109.742817,14.1878488 109.008973,15.2877969 109.008973,15.2877969 C109.008973,15.2877969 110.17212,11.5396164 108.572385,10.4026416 C107.804637,9.85705425 106.130104,9.57229009 106.130104,9.57229009 L111.724419,9.57229009 Z M105.834054,3.084262 C105.834054,6.11867326 102.730347,7.19661344 102.730347,7.19661344 C102.730347,7.19661344 104.131863,6.19257811 104.230601,3.42969655 C104.107178,0.691350803 102.182976,0.000630412168 102.182976,0.000630412168 L102.285206,0.000381633866 C102.87668,0.00925066213 105.834054,0.197913242 105.834054,3.084262 Z" id="ampersand"></path>
            </g>
        </g>
    </g>
</svg>